<?xml version="1.0" encoding="UTF-8" standalone="no"?>
<!-- Created with Inkscape (http://www.inkscape.org/) -->

<svg
   xmlns:dc="http://purl.org/dc/elements/1.1/"
   xmlns:cc="http://creativecommons.org/ns#"
   xmlns:rdf="http://www.w3.org/1999/02/22-rdf-syntax-ns#"
   xmlns:svg="http://www.w3.org/2000/svg"
   xmlns="http://www.w3.org/2000/svg"
   xmlns:sodipodi="http://sodipodi.sourceforge.net/DTD/sodipodi-0.dtd"
   xmlns:inkscape="http://www.inkscape.org/namespaces/inkscape"
   width="225.57747mm"
   height="225.5694mm"
   viewBox="0 0 799.29024 799.26164"
   id="svg2"
   version="1.1"
   inkscape:version="0.91 r13725"
   sodipodi:docname="logo_brand.svg">
  <defs
     id="defs4" />
  <sodipodi:namedview
     id="base"
     pagecolor="#ffffff"
     bordercolor="#666666"
     borderopacity="1.0"
     inkscape:pageopacity="0.0"
     inkscape:pageshadow="2"
     inkscape:zoom="0.55507813"
     inkscape:cx="67.652391"
     inkscape:cy="246.55981"
     inkscape:document-units="px"
     inkscape:current-layer="layer1"
     showgrid="false"
     fit-margin-top="0"
     fit-margin-left="0"
     fit-margin-right="0"
     fit-margin-bottom="0"
     inkscape:window-width="2560"
     inkscape:window-height="993"
     inkscape:window-x="0"
     inkscape:window-y="24"
     inkscape:window-maximized="1" />
  <metadata
     id="metadata7">
    <rdf:RDF>
      <cc:Work
         rdf:about="">
        <dc:format>image/svg+xml</dc:format>
        <dc:type
           rdf:resource="http://purl.org/dc/dcmitype/StillImage" />
        <dc:title></dc:title>
      </cc:Work>
    </rdf:RDF>
  </metadata>
  <g
     inkscape:label="Layer 1"
     inkscape:groupmode="layer"
     id="layer1"
     transform="translate(33.248136,17.427351)">
    <g
       id="g4173"
       transform="translate(342.29416,-75.665025)">
      <ellipse
         ry="292.75159"
         rx="317.07251"
         cy="480.37067"
         cx="10.809278"
         id="path4171"
         style="opacity:1;fill:#ffffff;fill-opacity:1" />
      <g
         transform="translate(18.015504,151.33004)"
         id="g4147">
        <path
           inkscape:connector-curvature="0"
           id="path4151"
           d="m -19.19458,705.80965 c -24.51543,-1.97488 -50.63468,-6.13442 -72,-11.46615 -127.99258,-31.94063 -232.89042,-126.50798 -278.32343,-250.91374 -25.64323,-70.21691 -30.8965,-146.89161 -15.15766,-221.23511 26.18505,-123.68686 112.02868,-229.46081 228.10536,-281.064626 37.94677,-16.869863 75.1715,-27.000518 118.87573,-32.351851 20.36887,-2.494052 67.63113,-2.494052 88,0 17.90296,2.192115 37.70801,5.79695 53.5,9.737849 142.27543,35.504919 254.90882,148.138308 290.41374,290.413738 8.55877,34.29673 11.51329,59.31701 11.51329,97.5 0,38.21795 -2.77793,62.3971 -11.02939,96 -13.90118,56.61061 -39.19761,107.52981 -77.25173,155.5 -12.17632,15.34921 -44.13913,47.29125 -59.64591,59.60716 -60.75042,48.24963 -125.94979,76.00392 -202,85.98806 -14.49848,1.90341 -61.83329,3.34534 -75,2.28467 z M -151.37877,561.13466 c 1.5487,-0.6627 36.99975,-35.38252 78.78011,-77.15517 l 75.96429,-75.95027 9.68624,9.45027 c 5.32744,5.19765 24.55139,24.13362 42.7199,42.07994 38.43238,37.96239 39.43543,38.87033 42.9422,38.87033 2.7876,0 8.26428,-5.003 101.59145,-92.80476 l 40.5,-38.10221 12,12.46451 c 6.6,6.85548 12.7875,12.45955 13.75,12.45348 2.02317,-0.0127 5.75011,-3.42289 5.74976,-5.26102 -1.4e-4,-0.6875 2.23798,-8.9 4.97358,-18.25 15.89825,-54.33845 24.02666,-83.16858 24.02666,-85.21855 0,-3.63546 -3.72552,-4.81627 -10.71578,-3.39639 -3.18132,0.6462 -27.83422,5.44863 -54.78422,10.67208 -36.53625,7.08145 -49.31795,9.92043 -50.25,11.16115 -2.94588,3.92149 -2.95772,3.9053 21.25,29.07101 4.4,4.57413 8.12959,8.68154 8.28798,9.12758 0.15839,0.44604 -9.96661,10.42201 -22.5,22.16882 -12.53339,11.7468 -25.93798,24.3512 -29.78798,28.00978 -3.85,3.65858 -19.8076,18.64705 -35.46134,33.30773 L 98.88275,450.48873 79.34408,431.17455 C 19.94307,372.45602 8.1699,360.93342 6.78163,360.15651 5.94166,359.68644 4.14688,359.44312 2.79322,359.6158 c -1.72098,0.21953 -28.14067,25.80549 -87.84399,85.07188 -46.96054,46.61686 -86.60493,86.52147 -88.09865,88.67692 -4.7496,6.85367 -4.66214,16.39582 0.20326,22.17802 5.01752,5.96298 14.78315,8.49504 21.56739,5.59204 z m 98.65911,-173.0585 c 41.13867,-40.98022 44.88813,-44.45117 49.2985,-45.63651 5.60003,-1.50509 13.20372,-0.83926 17.92282,1.56944 1.81707,0.92746 16.80376,15.07578 33.30376,31.44071 30.56757,30.31734 50.14872,49.26672 51.40625,49.74766 0.38498,0.14724 16.87607,-14.8739 36.64686,-33.38031 48.06483,-44.99098 53.44689,-50.23737 53.44689,-52.09955 0,-0.87542 -4.00885,-5.73558 -8.90856,-10.80035 -12.5442,-12.9668 -15.32645,-19.29056 -12.78976,-29.06973 1.69464,-6.53303 5.77536,-11.79255 11.17911,-14.40846 2.37611,-1.15026 9.26301,-3.01548 15.30422,-4.14495 l 10.98401,-2.05358 0.60449,-3.65538 c 0.33246,-2.01047 0.60943,-9.59484 0.61548,-16.85417 0.0367,-43.96733 -14.08807,-85.92394 -41.00648,-121.80713 C 132.82991,93.65617 83.26843,65.26805 28.33165,58.47722 15.88973,56.93925 -9.94494,57.19532 -22.76709,58.9837 c -89.28515,12.45313 -158.78151,81.31421 -172.5231,170.94606 -2.32683,15.17714 -2.32954,43.38435 -0.006,58 9.30968,58.54959 39.9178,106.552 89.09478,139.72648 3.85352,2.59957 7.44512,4.73707 7.98133,4.75 0.5362,0.0129 21.0112,-19.9356 45.5,-44.33008 z m 45.80586,-85.8964 -0.28078,-12.25 -4,-0.28149 c -12.4718,-0.87767 -37.00411,-7.76266 -38.13194,-10.70173 -0.3786,-0.98664 6.216,-28.38138 7.04066,-29.24773 0.12092,-0.12702 3.46092,1.13081 7.42224,2.79518 12.21633,5.13276 21.49513,7.13188 33.66904,7.25402 9.52838,0.0956 11.70614,-0.20398 16.27824,-2.23924 11.18947,-4.98096 13.25048,-15.88287 4.61946,-24.43495 -3.66089,-3.62741 -10.23578,-6.95463 -22.32963,-11.29991 -16.9026,-6.07306 -25.81274,-11.05371 -33.67206,-18.82223 -5.49178,-5.42834 -7.59708,-8.35157 -9.27672,-12.88084 -5.92427,-15.97525 -2.3153,-33.37283 9.37716,-45.20398 6.26557,-6.33988 12.51667,-10.02866 22.88868,-13.50661 l 8.11487,-2.72109 0.28078,-12.1047 0.28078,-12.1047 12.46922,0 12.46922,0 0,11.36191 0,11.3619 6.75,0.68308 c 3.7125,0.37569 9.675,1.34499 13.25,2.154 6.63717,1.50198 17,5.26651 17,6.17564 0,0.62713 -7.14529,27.69099 -7.38088,27.95617 -0.0942,0.10599 -4.88448,-1.43549 -10.64516,-3.42552 -9.11879,-3.15008 -11.99813,-3.67629 -22.25415,-4.06703 -9.46373,-0.36056 -12.65353,-0.11527 -16.22156,1.24737 -6.03379,2.30432 -9.49825,6.58095 -9.49825,11.72491 0,8.48217 5.56226,12.94388 26.72154,21.43443 26.17567,10.50348 36.35376,17.7068 42.41453,30.01798 2.73972,5.56516 3.23667,7.79597 3.65032,16.38623 0.4086,8.48535 0.14203,10.99154 -1.81723,17.08485 -5.05616,15.72468 -18.60231,27.53225 -36.96916,32.22437 l -5.5,1.40506 -0.27903,13.13733 -0.27902,13.13732 -12.9402,0 -12.94019,0 -0.28078,-12.25 z"
           style="fill:#494949" />
        <path
           inkscape:connector-curvature="0"
           id="path4149"
           d="m -13.5074,705.53156 -10.31282,-0.72918 -71.68718,-71.73134 c -43.07209,-43.09862 -70.56349,-71.3142 -68.87208,-70.68631 3.94797,1.46558 8.12791,1.30144 12.46702,-0.48954 2.60656,-1.07586 26.35729,-24.1629 79.45735,-77.237 l 75.73947,-75.70244 8.18624,7.987 c 4.50243,4.39286 9.39383,9.11201 10.86977,10.48701 1.47595,1.375 18.49648,18.1375 37.82342,37.25 31.01679,30.67267 35.50448,34.75 38.24733,34.75 2.48955,0 4.62404,-1.44165 10.73432,-7.25 11.76485,-11.18351 21.16708,-20.0198 39.65998,-37.27277 9.35,-8.72309 20.375,-19.06897 24.5,-22.99084 4.125,-3.92187 14.925,-14.06422 24,-22.53854 18.75328,-17.51201 26.50945,-24.79773 36.5,-34.2861 l 7,-6.64815 11.5,12.03074 c 10.09759,10.56361 11.89204,12.02617 14.71482,11.9932 2.02338,-0.0236 3.56575,-0.69328 4.16175,-1.8069 0.90352,-1.68825 3.591,-10.60572 13.63126,-45.23064 2.47201,-8.525 6.54335,-22.475 9.04742,-31 9.30077,-31.66413 9.47958,-32.84063 5.32889,-35.06201 -1.39299,-0.7455 -3.52334,-0.74662 -7.18227,-0.004 -2.86103,0.58086 -12.17687,2.4024 -20.70187,4.04785 -8.525,1.64546 -18.875,3.68444 -23,4.53108 -7.13494,1.46441 -13.72512,2.73721 -46.90922,9.05985 -14.93131,2.84514 -18.09078,4.32277 -18.09078,8.46097 0,1.90396 3.21861,5.56332 23.98305,27.26721 l 7.48304,7.82161 -8.00533,7.68872 c -7.55775,7.25883 -13.94788,13.28664 -31.47731,29.69251 -15.50546,14.51162 -38.04423,35.65607 -53.98345,50.64384 -16.76276,15.76216 -20.95333,19.55128 -22.1912,20.06533 C 98.41737,448.93211 80.60259,431.63954 32.76199,384.23553 10.4916,362.16837 6.28959,358.42976 3.75758,358.42976 c -2.56834,0 -8.59561,5.63579 -45.45216,42.5 -23.37015,23.375 -42.95853,42.5 -43.52975,42.5 -0.57121,0 -3.37962,-2.3705 -6.2409,-5.26777 l -5.20233,-5.26776 43.73649,-43.69702 c 29.96179,-29.93475 44.90743,-44.18053 47.45437,-45.23223 7.31338,-3.0199 17.10026,-1.56063 23.59057,3.51748 1.48035,1.15825 16.89297,16.13272 34.25026,33.2766 17.35729,17.14389 34.99686,34.51165 39.19903,38.59504 l 7.64032,7.42435 4.80097,-4.36014 c 2.64053,-2.39808 11.32597,-10.48789 19.30097,-17.97735 7.975,-7.48946 22.15,-20.76701 31.5,-29.50567 9.35,-8.73866 20.49511,-19.26795 24.76691,-23.39844 4.27181,-4.13048 8.14865,-7.75682 8.61522,-8.05853 0.46657,-0.30171 1.16729,-1.57054 1.55716,-2.81962 0.59919,-1.91972 -0.74878,-3.7762 -8.71311,-12 -10.80153,-11.15345 -12.75547,-14.3743 -13.43192,-22.14109 -0.41637,-4.78061 -0.0692,-6.3824 2.40297,-11.08785 4.05178,-7.71193 9.67774,-10.92602 23.36255,-13.34693 5.74212,-1.0158 10.93918,-1.9898 11.54901,-2.16443 2.86727,-0.82104 2.41061,-40.55489 -0.63773,-55.48864 -6.07135,-29.74342 -14.34248,-51.10407 -28.44175,-73.45237 l -5.64794,-8.95236 13.30932,12.92245 c 53.19293,51.64677 216.80931,215.26407 216.80931,216.81053 0,5.25392 -7.20975,36.14612 -12.17606,52.17175 -41.5786,134.16873 -150.27318,236.81849 -286.32394,270.40064 -35.66475,8.80332 -83.5037,13.45026 -115.31282,11.20116 z"
           style="fill:#242424" />
      </g>
    </g>
  </g>
</svg>
